<mxfile host="app.diagrams.net" modified="2022-09-12T13:14:57.300Z" agent="5.0 (Windows NT 10.0; Win64; x64) AppleWebKit/537.36 (KHTML, like Gecko) Chrome/105.0.0.0 Safari/537.36" etag="BJMwc2YpeTCwnaDjH7n8" version="20.3.0" type="github">
  <diagram id="C5RBs43oDa-KdzZeNtuy" name="Page-1">
    <mxGraphModel dx="4382" dy="1905" grid="1" gridSize="10" guides="1" tooltips="1" connect="1" arrows="1" fold="1" page="1" pageScale="1" pageWidth="827" pageHeight="1169" math="0" shadow="0">
      <root>
        <mxCell id="WIyWlLk6GJQsqaUBKTNV-0" />
        <mxCell id="WIyWlLk6GJQsqaUBKTNV-1" parent="WIyWlLk6GJQsqaUBKTNV-0" />
        <mxCell id="lMgrU5qofodP_Hg9BASv-1" value="ITERABLE" style="shape=process;whiteSpace=wrap;html=1;backgroundOutline=1;" vertex="1" parent="WIyWlLk6GJQsqaUBKTNV-1">
          <mxGeometry x="260" y="10" width="120" height="60" as="geometry" />
        </mxCell>
        <mxCell id="lMgrU5qofodP_Hg9BASv-2" value="COLLECTION" style="shape=process;whiteSpace=wrap;html=1;backgroundOutline=1;" vertex="1" parent="WIyWlLk6GJQsqaUBKTNV-1">
          <mxGeometry x="260" y="130" width="120" height="60" as="geometry" />
        </mxCell>
        <mxCell id="lMgrU5qofodP_Hg9BASv-3" value="SET" style="shape=process;whiteSpace=wrap;html=1;backgroundOutline=1;" vertex="1" parent="WIyWlLk6GJQsqaUBKTNV-1">
          <mxGeometry x="-260" y="185" width="120" height="60" as="geometry" />
        </mxCell>
        <mxCell id="lMgrU5qofodP_Hg9BASv-4" value="" style="endArrow=classic;html=1;rounded=0;entryX=0.5;entryY=1;entryDx=0;entryDy=0;exitX=0.5;exitY=0;exitDx=0;exitDy=0;" edge="1" parent="WIyWlLk6GJQsqaUBKTNV-1" source="lMgrU5qofodP_Hg9BASv-3" target="lMgrU5qofodP_Hg9BASv-2">
          <mxGeometry width="50" height="50" relative="1" as="geometry">
            <mxPoint x="100" y="400" as="sourcePoint" />
            <mxPoint x="150" y="350" as="targetPoint" />
          </mxGeometry>
        </mxCell>
        <mxCell id="lMgrU5qofodP_Hg9BASv-5" value="HashSET" style="rounded=0;whiteSpace=wrap;html=1;fillColor=#d5e8d4;strokeColor=#82b366;" vertex="1" parent="WIyWlLk6GJQsqaUBKTNV-1">
          <mxGeometry x="-720" y="640" width="120" height="60" as="geometry" />
        </mxCell>
        <mxCell id="lMgrU5qofodP_Hg9BASv-6" value="LinkedHashSET" style="rounded=0;whiteSpace=wrap;html=1;fillColor=#d5e8d4;strokeColor=#82b366;" vertex="1" parent="WIyWlLk6GJQsqaUBKTNV-1">
          <mxGeometry x="-400" y="640" width="120" height="60" as="geometry" />
        </mxCell>
        <mxCell id="lMgrU5qofodP_Hg9BASv-7" value="SORTED SET" style="shape=process;whiteSpace=wrap;html=1;backgroundOutline=1;" vertex="1" parent="WIyWlLk6GJQsqaUBKTNV-1">
          <mxGeometry x="-80" y="480" width="120" height="60" as="geometry" />
        </mxCell>
        <mxCell id="lMgrU5qofodP_Hg9BASv-8" value="TreeSET" style="rounded=0;whiteSpace=wrap;html=1;fillColor=#d5e8d4;strokeColor=#82b366;" vertex="1" parent="WIyWlLk6GJQsqaUBKTNV-1">
          <mxGeometry x="-80" y="640" width="120" height="60" as="geometry" />
        </mxCell>
        <mxCell id="lMgrU5qofodP_Hg9BASv-9" value="" style="endArrow=classic;html=1;rounded=0;" edge="1" parent="WIyWlLk6GJQsqaUBKTNV-1">
          <mxGeometry width="50" height="50" relative="1" as="geometry">
            <mxPoint x="679.5" y="120" as="sourcePoint" />
            <mxPoint x="679.5" y="40" as="targetPoint" />
          </mxGeometry>
        </mxCell>
        <mxCell id="lMgrU5qofodP_Hg9BASv-10" value="" style="endArrow=classic;html=1;rounded=0;dashed=1;" edge="1" parent="WIyWlLk6GJQsqaUBKTNV-1">
          <mxGeometry width="50" height="50" relative="1" as="geometry">
            <mxPoint x="770" y="120" as="sourcePoint" />
            <mxPoint x="770" y="40" as="targetPoint" />
          </mxGeometry>
        </mxCell>
        <mxCell id="lMgrU5qofodP_Hg9BASv-11" value="EXTENDS&lt;br&gt;" style="text;html=1;align=center;verticalAlign=middle;resizable=0;points=[];autosize=1;strokeColor=none;fillColor=none;" vertex="1" parent="WIyWlLk6GJQsqaUBKTNV-1">
          <mxGeometry x="640" y="125" width="80" height="30" as="geometry" />
        </mxCell>
        <mxCell id="lMgrU5qofodP_Hg9BASv-12" value="IMPLEMENTS&lt;br&gt;" style="text;html=1;align=center;verticalAlign=middle;resizable=0;points=[];autosize=1;strokeColor=none;fillColor=none;" vertex="1" parent="WIyWlLk6GJQsqaUBKTNV-1">
          <mxGeometry x="727" y="125" width="100" height="30" as="geometry" />
        </mxCell>
        <mxCell id="lMgrU5qofodP_Hg9BASv-13" value="" style="shape=process;whiteSpace=wrap;html=1;backgroundOutline=1;" vertex="1" parent="WIyWlLk6GJQsqaUBKTNV-1">
          <mxGeometry x="670" y="170" width="120" height="60" as="geometry" />
        </mxCell>
        <mxCell id="lMgrU5qofodP_Hg9BASv-14" value="INTERFACE" style="text;html=1;align=center;verticalAlign=middle;resizable=0;points=[];autosize=1;strokeColor=none;fillColor=none;" vertex="1" parent="WIyWlLk6GJQsqaUBKTNV-1">
          <mxGeometry x="685" y="245" width="90" height="30" as="geometry" />
        </mxCell>
        <mxCell id="lMgrU5qofodP_Hg9BASv-15" value="" style="rounded=0;whiteSpace=wrap;html=1;" vertex="1" parent="WIyWlLk6GJQsqaUBKTNV-1">
          <mxGeometry x="670" y="290" width="120" height="60" as="geometry" />
        </mxCell>
        <mxCell id="lMgrU5qofodP_Hg9BASv-16" value="CLASS" style="text;html=1;align=center;verticalAlign=middle;resizable=0;points=[];autosize=1;strokeColor=none;fillColor=none;" vertex="1" parent="WIyWlLk6GJQsqaUBKTNV-1">
          <mxGeometry x="700" y="370" width="60" height="30" as="geometry" />
        </mxCell>
        <mxCell id="lMgrU5qofodP_Hg9BASv-17" value="" style="endArrow=classic;html=1;rounded=0;entryX=0.5;entryY=1;entryDx=0;entryDy=0;exitX=0.5;exitY=0;exitDx=0;exitDy=0;" edge="1" parent="WIyWlLk6GJQsqaUBKTNV-1" source="lMgrU5qofodP_Hg9BASv-7" target="lMgrU5qofodP_Hg9BASv-3">
          <mxGeometry width="50" height="50" relative="1" as="geometry">
            <mxPoint x="150" y="510" as="sourcePoint" />
            <mxPoint x="200" y="460" as="targetPoint" />
          </mxGeometry>
        </mxCell>
        <mxCell id="lMgrU5qofodP_Hg9BASv-18" value="" style="endArrow=classic;html=1;rounded=0;entryX=0.5;entryY=1;entryDx=0;entryDy=0;exitX=0.5;exitY=0;exitDx=0;exitDy=0;dashed=1;" edge="1" parent="WIyWlLk6GJQsqaUBKTNV-1" source="lMgrU5qofodP_Hg9BASv-5" target="lMgrU5qofodP_Hg9BASv-3">
          <mxGeometry width="50" height="50" relative="1" as="geometry">
            <mxPoint x="-413" y="500" as="sourcePoint" />
            <mxPoint x="-363" y="450" as="targetPoint" />
          </mxGeometry>
        </mxCell>
        <mxCell id="lMgrU5qofodP_Hg9BASv-20" value="" style="endArrow=classic;html=1;rounded=0;dashed=1;entryX=0.5;entryY=1;entryDx=0;entryDy=0;exitX=0.5;exitY=0;exitDx=0;exitDy=0;" edge="1" parent="WIyWlLk6GJQsqaUBKTNV-1" source="lMgrU5qofodP_Hg9BASv-6" target="lMgrU5qofodP_Hg9BASv-3">
          <mxGeometry width="50" height="50" relative="1" as="geometry">
            <mxPoint x="150" y="510" as="sourcePoint" />
            <mxPoint x="200" y="460" as="targetPoint" />
          </mxGeometry>
        </mxCell>
        <mxCell id="lMgrU5qofodP_Hg9BASv-21" value="" style="endArrow=classic;html=1;rounded=0;dashed=1;entryX=0.5;entryY=1;entryDx=0;entryDy=0;exitX=0.5;exitY=0;exitDx=0;exitDy=0;" edge="1" parent="WIyWlLk6GJQsqaUBKTNV-1" source="lMgrU5qofodP_Hg9BASv-8" target="lMgrU5qofodP_Hg9BASv-7">
          <mxGeometry width="50" height="50" relative="1" as="geometry">
            <mxPoint x="150" y="510" as="sourcePoint" />
            <mxPoint x="200" y="460" as="targetPoint" />
          </mxGeometry>
        </mxCell>
        <mxCell id="lMgrU5qofodP_Hg9BASv-24" value="SET PROPERTIES" style="swimlane;fontStyle=0;childLayout=stackLayout;horizontal=1;startSize=30;horizontalStack=0;resizeParent=1;resizeParentMax=0;resizeLast=0;collapsible=1;marginBottom=0;" vertex="1" parent="WIyWlLk6GJQsqaUBKTNV-1">
          <mxGeometry x="-630" y="155" width="190" height="120" as="geometry">
            <mxRectangle x="-630" y="245" width="60" height="30" as="alternateBounds" />
          </mxGeometry>
        </mxCell>
        <mxCell id="lMgrU5qofodP_Hg9BASv-27" value="THERE CAN BE ONLY ONE &#xa;OF EACH ELEMENT" style="text;strokeColor=#b85450;fillColor=#f8cecc;align=left;verticalAlign=middle;spacingLeft=4;spacingRight=4;overflow=hidden;points=[[0,0.5],[1,0.5]];portConstraint=eastwest;rotatable=0;" vertex="1" parent="lMgrU5qofodP_Hg9BASv-24">
          <mxGeometry y="30" width="190" height="30" as="geometry" />
        </mxCell>
        <mxCell id="lMgrU5qofodP_Hg9BASv-25" value="ORDER IS NOT IMPORTANT" style="text;strokeColor=none;fillColor=none;align=left;verticalAlign=middle;spacingLeft=4;spacingRight=4;overflow=hidden;points=[[0,0.5],[1,0.5]];portConstraint=eastwest;rotatable=0;" vertex="1" parent="lMgrU5qofodP_Hg9BASv-24">
          <mxGeometry y="60" width="190" height="30" as="geometry" />
        </mxCell>
        <mxCell id="lMgrU5qofodP_Hg9BASv-26" value="DOES NOT ALLOW NULL" style="text;strokeColor=none;fillColor=none;align=left;verticalAlign=middle;spacingLeft=4;spacingRight=4;overflow=hidden;points=[[0,0.5],[1,0.5]];portConstraint=eastwest;rotatable=0;" vertex="1" parent="lMgrU5qofodP_Hg9BASv-24">
          <mxGeometry y="90" width="190" height="30" as="geometry" />
        </mxCell>
        <mxCell id="lMgrU5qofodP_Hg9BASv-28" value="" style="shape=flexArrow;endArrow=classic;html=1;rounded=0;fillColor=#fff2cc;strokeColor=#d6b656;exitX=0;exitY=0.5;exitDx=0;exitDy=0;width=9;endSize=7.34;entryX=1.011;entryY=0.033;entryDx=0;entryDy=0;entryPerimeter=0;" edge="1" parent="WIyWlLk6GJQsqaUBKTNV-1" source="lMgrU5qofodP_Hg9BASv-3" target="lMgrU5qofodP_Hg9BASv-25">
          <mxGeometry width="50" height="50" relative="1" as="geometry">
            <mxPoint x="-360" y="500" as="sourcePoint" />
            <mxPoint x="-380" y="260" as="targetPoint" />
          </mxGeometry>
        </mxCell>
        <mxCell id="lMgrU5qofodP_Hg9BASv-29" value="HashSET PROPERTIES" style="swimlane;fontStyle=0;childLayout=stackLayout;horizontal=1;startSize=30;horizontalStack=0;resizeParent=1;resizeParentMax=0;resizeLast=0;collapsible=1;marginBottom=0;" vertex="1" parent="WIyWlLk6GJQsqaUBKTNV-1">
          <mxGeometry x="-755" y="760" width="190" height="120" as="geometry" />
        </mxCell>
        <mxCell id="lMgrU5qofodP_Hg9BASv-32" value="THERE CAN BE ONLY ONE&#xa;OF EACH ELEMENT" style="text;strokeColor=none;fillColor=none;align=left;verticalAlign=middle;spacingLeft=4;spacingRight=4;overflow=hidden;points=[[0,0.5],[1,0.5]];portConstraint=eastwest;rotatable=0;" vertex="1" parent="lMgrU5qofodP_Hg9BASv-29">
          <mxGeometry y="30" width="190" height="30" as="geometry" />
        </mxCell>
        <mxCell id="lMgrU5qofodP_Hg9BASv-30" value="ORDER IS NOT IMPORTANT" style="text;strokeColor=#9673a6;fillColor=#e1d5e7;align=left;verticalAlign=middle;spacingLeft=4;spacingRight=4;overflow=hidden;points=[[0,0.5],[1,0.5]];portConstraint=eastwest;rotatable=0;" vertex="1" parent="lMgrU5qofodP_Hg9BASv-29">
          <mxGeometry y="60" width="190" height="30" as="geometry" />
        </mxCell>
        <mxCell id="lMgrU5qofodP_Hg9BASv-31" value="ALLOW NULL OBJECT" style="text;strokeColor=#6c8ebf;fillColor=#dae8fc;align=left;verticalAlign=middle;spacingLeft=4;spacingRight=4;overflow=hidden;points=[[0,0.5],[1,0.5]];portConstraint=eastwest;rotatable=0;" vertex="1" parent="lMgrU5qofodP_Hg9BASv-29">
          <mxGeometry y="90" width="190" height="30" as="geometry" />
        </mxCell>
        <mxCell id="lMgrU5qofodP_Hg9BASv-33" value="LinkedHashSET PROPERTIES" style="swimlane;fontStyle=0;childLayout=stackLayout;horizontal=1;startSize=30;horizontalStack=0;resizeParent=1;resizeParentMax=0;resizeLast=0;collapsible=1;marginBottom=0;" vertex="1" parent="WIyWlLk6GJQsqaUBKTNV-1">
          <mxGeometry x="-435" y="760" width="190" height="120" as="geometry" />
        </mxCell>
        <mxCell id="lMgrU5qofodP_Hg9BASv-34" value="THERE CAN BE ONLY ONE&#xa;OF EACH ELEMENT" style="text;strokeColor=none;fillColor=none;align=left;verticalAlign=middle;spacingLeft=4;spacingRight=4;overflow=hidden;points=[[0,0.5],[1,0.5]];portConstraint=eastwest;rotatable=0;" vertex="1" parent="lMgrU5qofodP_Hg9BASv-33">
          <mxGeometry y="30" width="190" height="30" as="geometry" />
        </mxCell>
        <mxCell id="lMgrU5qofodP_Hg9BASv-35" value="ORDER IS IMPORTANT" style="text;strokeColor=#6c8ebf;fillColor=#dae8fc;align=left;verticalAlign=middle;spacingLeft=4;spacingRight=4;overflow=hidden;points=[[0,0.5],[1,0.5]];portConstraint=eastwest;rotatable=0;" vertex="1" parent="lMgrU5qofodP_Hg9BASv-33">
          <mxGeometry y="60" width="190" height="30" as="geometry" />
        </mxCell>
        <mxCell id="lMgrU5qofodP_Hg9BASv-36" value="ALLOW NULL OBJECT" style="text;strokeColor=#2D7600;fillColor=#60a917;align=left;verticalAlign=middle;spacingLeft=4;spacingRight=4;overflow=hidden;points=[[0,0.5],[1,0.5]];portConstraint=eastwest;rotatable=0;fontColor=#ffffff;" vertex="1" parent="lMgrU5qofodP_Hg9BASv-33">
          <mxGeometry y="90" width="190" height="30" as="geometry" />
        </mxCell>
        <mxCell id="lMgrU5qofodP_Hg9BASv-37" value="LinkedHashSET PROPERTIES" style="swimlane;fontStyle=0;childLayout=stackLayout;horizontal=1;startSize=30;horizontalStack=0;resizeParent=1;resizeParentMax=0;resizeLast=0;collapsible=1;marginBottom=0;" vertex="1" parent="WIyWlLk6GJQsqaUBKTNV-1">
          <mxGeometry x="-115" y="760" width="190" height="120" as="geometry" />
        </mxCell>
        <mxCell id="lMgrU5qofodP_Hg9BASv-38" value="THERE CAN BE ONLY ONE&#xa;OF EACH ELEMENT" style="text;strokeColor=none;fillColor=none;align=left;verticalAlign=middle;spacingLeft=4;spacingRight=4;overflow=hidden;points=[[0,0.5],[1,0.5]];portConstraint=eastwest;rotatable=0;" vertex="1" parent="lMgrU5qofodP_Hg9BASv-37">
          <mxGeometry y="30" width="190" height="30" as="geometry" />
        </mxCell>
        <mxCell id="lMgrU5qofodP_Hg9BASv-39" value="STORES DATA IN ASCENDING&#xa;ORDER" style="text;strokeColor=#b46504;fillColor=#fad7ac;align=left;verticalAlign=middle;spacingLeft=4;spacingRight=4;overflow=hidden;points=[[0,0.5],[1,0.5]];portConstraint=eastwest;rotatable=0;" vertex="1" parent="lMgrU5qofodP_Hg9BASv-37">
          <mxGeometry y="60" width="190" height="30" as="geometry" />
        </mxCell>
        <mxCell id="lMgrU5qofodP_Hg9BASv-40" value="DOES NOT ALLOW NULL &#xa;(Throws NullPointerException)" style="text;strokeColor=#56517e;fillColor=#d0cee2;align=left;verticalAlign=middle;spacingLeft=4;spacingRight=4;overflow=hidden;points=[[0,0.5],[1,0.5]];portConstraint=eastwest;rotatable=0;" vertex="1" parent="lMgrU5qofodP_Hg9BASv-37">
          <mxGeometry y="90" width="190" height="30" as="geometry" />
        </mxCell>
        <mxCell id="lMgrU5qofodP_Hg9BASv-41" value="" style="shape=flexArrow;endArrow=classic;html=1;rounded=0;fillColor=#fff2cc;strokeColor=#d6b656;exitX=0.5;exitY=1;exitDx=0;exitDy=0;width=9;endSize=7.34;entryX=0.5;entryY=0;entryDx=0;entryDy=0;" edge="1" parent="WIyWlLk6GJQsqaUBKTNV-1" source="lMgrU5qofodP_Hg9BASv-5" target="lMgrU5qofodP_Hg9BASv-29">
          <mxGeometry width="50" height="50" relative="1" as="geometry">
            <mxPoint x="-413.09000000000003" y="660" as="sourcePoint" />
            <mxPoint x="-591.0000000000001" y="660.99" as="targetPoint" />
          </mxGeometry>
        </mxCell>
        <mxCell id="lMgrU5qofodP_Hg9BASv-42" value="" style="shape=flexArrow;endArrow=classic;html=1;rounded=0;fillColor=#fff2cc;strokeColor=#d6b656;exitX=0.5;exitY=1;exitDx=0;exitDy=0;width=9;endSize=7.34;entryX=0.5;entryY=0;entryDx=0;entryDy=0;" edge="1" parent="WIyWlLk6GJQsqaUBKTNV-1" source="lMgrU5qofodP_Hg9BASv-6" target="lMgrU5qofodP_Hg9BASv-33">
          <mxGeometry width="50" height="50" relative="1" as="geometry">
            <mxPoint x="-370" y="710" as="sourcePoint" />
            <mxPoint x="-370" y="770" as="targetPoint" />
          </mxGeometry>
        </mxCell>
        <mxCell id="lMgrU5qofodP_Hg9BASv-43" value="" style="shape=flexArrow;endArrow=classic;html=1;rounded=0;fillColor=#fff2cc;strokeColor=#d6b656;exitX=0.5;exitY=1;exitDx=0;exitDy=0;width=9;endSize=7.34;entryX=0.5;entryY=0;entryDx=0;entryDy=0;" edge="1" parent="WIyWlLk6GJQsqaUBKTNV-1" source="lMgrU5qofodP_Hg9BASv-8" target="lMgrU5qofodP_Hg9BASv-37">
          <mxGeometry width="50" height="50" relative="1" as="geometry">
            <mxPoint x="-60" y="710" as="sourcePoint" />
            <mxPoint x="-60" y="770" as="targetPoint" />
          </mxGeometry>
        </mxCell>
        <mxCell id="lMgrU5qofodP_Hg9BASv-47" value="" style="image;html=1;image=img/lib/clip_art/general/Star_128x128.png;shadow=0;dashed=0;fontFamily=Helvetica;fontSize=12;fontColor=default;align=center;strokeColor=none;fillColor=#737373;sketch=0;" vertex="1" parent="WIyWlLk6GJQsqaUBKTNV-1">
          <mxGeometry x="-755" y="970" width="30" height="30" as="geometry" />
        </mxCell>
        <mxCell id="lMgrU5qofodP_Hg9BASv-48" value="HashSET USES HASH ALGORITHMS, TreeSET USES BINARY TREE" style="text;html=1;align=center;verticalAlign=middle;resizable=0;points=[];autosize=1;strokeColor=none;fillColor=none;fontStyle=1;spacing=0;" vertex="1" parent="WIyWlLk6GJQsqaUBKTNV-1">
          <mxGeometry x="-710" y="980" width="380" height="20" as="geometry" />
        </mxCell>
        <mxCell id="lMgrU5qofodP_Hg9BASv-51" value="The set interface is present in &lt;br&gt;java.util package and extends the Collection&lt;br&gt;&amp;nbsp;interface is &lt;u&gt;&lt;b&gt;&lt;font color=&quot;#ff0000&quot;&gt;unordered collection&lt;/font&gt;&lt;/b&gt;&lt;/u&gt; of objects&lt;br&gt;&amp;nbsp;in which duplicate values cannot be stored." style="text;html=1;align=center;verticalAlign=middle;resizable=0;points=[];autosize=1;strokeColor=#0e8088;fillColor=#b0e3e6;" vertex="1" parent="WIyWlLk6GJQsqaUBKTNV-1">
          <mxGeometry x="-665" y="290" width="260" height="70" as="geometry" />
        </mxCell>
      </root>
    </mxGraphModel>
  </diagram>
</mxfile>
